<?xml version="1.0" encoding="UTF-8"?>
<svg id="Layer_2" data-name="Layer 2" xmlns="http://www.w3.org/2000/svg" viewBox="0 0 343.8 193.7">
  <g id="Layer_1-2" data-name="Layer 1">
    <path d="m337.53,156.4L205.9,24.77c-6.07-6.07-12.09-12.31-18.27-18.27l-.27-.27c-8.31-8.31-22.53-8.31-30.9.05L24.84,137.91c-6.07,6.07-12.3,12.09-18.27,18.27l-.27.27c-8.09,8.09-8.7,22.97,0,30.95,8.75,8.04,22.31,8.64,30.95,0L168.88,55.77c6.07-6.07,12.3-12.03,18.27-18.27l.27-.27h-30.95l131.63,131.63c6.07,6.07,12.09,12.31,18.27,18.27l.27.27c8.09,8.09,22.97,8.7,30.95,0,7.98-8.8,8.59-22.37-.05-31.01h0Z"/>
  </g>
</svg>