<?xml version="1.0" encoding="UTF-8"?>
<svg id="Layer_2" data-name="Layer 2" xmlns="http://www.w3.org/2000/svg" viewBox="0 0 464 464">
  <defs>
    <style>
      .cls-1 {
        fill: #919295;
        width: 24px;
        height: 24px;
      }
    </style>
  </defs>
  <g id="Layer_1-2" data-name="Layer 1">
    <g>
      <path class="cls-1" d="m80,48h48c13.25,0,24-10.75,24-24h0c0-13.25-10.75-24-24-24H24C10.75,0,0,10.75,0,24v104c0,13.25,10.75,24,24,24s24-10.75,24-24v-48l116,116c8.84,8.84,23.16,8.84,32,0h0c8.84-8.84,8.84-23.16,0-32h0S80,48,80,48Z"/>
      <path class="cls-1" d="m196,268c-8.84-8.84-23.16-8.84-32,0,0,0,0,0,0,0l-116,116v-48c0-13.25-10.75-24-24-24S0,322.75,0,336v104c0,13.25,10.75,24,24,24h104c13.25,0,24-10.75,24-24h0c0-13.25-10.75-24-24-24h-48l116-116c8.84-8.84,8.84-23.16,0-32,0,0,0,0,0,0Z"/>
      <path class="cls-1" d="m440,0h-104c-13.25,0-24,10.75-24,24h0c0,13.25,10.75,24,24,24h48l-116,116c-8.84,8.84-8.84,23.16,0,32,0,0,0,0,0,0h0c8.84,8.84,23.16,8.84,32,0,0,0,0,0,0,0l116-116v48c0,13.25,10.75,24,24,24s24-10.75,24-24V24c0-13.25-10.75-24-24-24Z"/>
      <path class="cls-1" d="m440,312c-13.25,0-24,10.75-24,24v48l-116-116c-8.84-8.84-23.16-8.84-32,0h0c-8.84,8.84-8.84,23.16,0,32h0s116,116,116,116h-48c-13.25,0-24,10.75-24,24h0c0,13.25,10.75,24,24,24h104c13.25,0,24-10.75,24-24h0v-104c0-13.25-10.75-24-24-24Z"/>
    </g>
  </g>
</svg>