<?xml version="1.0" encoding="UTF-8"?>
<svg id="Layer_1" data-name="Layer 1" xmlns="http://www.w3.org/2000/svg" viewBox="0 0 418 134">
  <defs>
    <style>
      .cls-1 {
        fill: #fff;
      }
    </style>
  </defs>
  <path class="cls-1" d="m349.53,52.1c-12.04,0-16.57,9.72-16.57,17.24s4.65,17.25,16.16,17.25c10.19,0,16.61-7.96,16.61-18.04,0-10.07-6.22-16.45-16.2-16.45m1.17,32.14c-7.31,0-11.7-7.19-11.7-16.25,0-10.85,4.99-13.63,9.37-13.63,6.25,0,11.16,6.05,11.16,15.81,0,12.59-6.17,14.07-8.84,14.07Z"/>
  <path class="cls-1" d="m224.16,86.67c2.68,0,5.49-.4,7.98-1.81,3.57-2.07,4.59-5.11,4.51-7.67-.12-4.19-2.43-7.14-8.62-11.23l-1.44-.92c-4.28-2.78-5.48-4.32-5.54-6.35-.08-2.64,2.14-4.54,5.87-4.54,3.28,0,4.78,1.32,5.57,2.16,1.09,1.14,1.39,2.51,1.4,2.9.02.53.18.8.53.8.4,0,.54-.35.51-1.32-.1-3.43.06-4.71.04-5.29-.01-.3-.27-.44-.72-.53-1.32-.31-3.45-.75-6.74-.75-7.02,0-11.56,3.48-11.41,8.33.11,3.57,2.12,6.65,7.79,10.44l2.37,1.59c4.27,2.82,5.09,4.89,5.16,7.05.07,2.34-2.07,5.02-6.61,5.02-3.13,0-6.14-1.19-7.35-4.45-.28-.75-.5-1.67-.53-2.25,0-.35-.07-.75-.53-.75-.4,0-.54.49-.57,1.14-.03.71-.15,3.35-.08,5.77.03.97.19,1.19,1,1.5,2.2.84,4.48,1.15,7.4,1.15"/>
  <path class="cls-1" d="m334.23,84.88c-.52,0-1.16-.04-1.76-.18-.85-.21-1.65-1.17-2.01-5.08-.61-6.6-1.77-24.31-2-26.71-.08-.8-.88-.97-1.38-.6-.37.27-.88,1.04-1.39,1.74-7.8,10.64-12.1,16.39-20.03,27.11-1.38,1.87-2.5,3.91-5.14,3.79-1.13-.06-1.56-1.13-1.69-2.34-.22-1.87-.22-5.3-.22-9.29v-17.36c0-.48.13-.74.34-.83.39-.13,1.04-.17,1.7-.17,1,0,3.54.13,5.1,1.55,2.43,2.17,2.4,5.12,2.4,6.55,0,4.43-3.52,7.25-5.94,7.25-.91,0-1.69.13-1.69.48,0,.3.31.35.52.39.22.04,2.07.11,2.29.11,6.16,0,10.57-3.7,10.68-10.5.03-2.3-1.23-4.24-2.17-5.16-1.24-1.21-4.02-2.54-9.45-2.54-2,0-4.51.13-6.29.13-1.06,0-7.08-.26-7.36-.26-1.47,0-2.94.13-3.8.13s-2.68-.13-4.7-.13c-.58,0-1.01.05-1.01.39,0,.26.15.39.62.39.54,0,1.48,0,2.06.26.93.44,1.28,1.26,1.32,3.9l.11,16.86c-.66-.69-19.87-21.96-20.43-22.4-.73-.55-1.48-.04-1.48.65l-.72,21.81c-6.81-8.46-17.61-21.94-17.9-22.36-.44-.65-1.53-.45-1.6.48-.09,1.24-1.96,28.16-1.96,28.16-.07,2.15-.36,3.61-2.28,3.86-.34.05-.93.09-1.33.09-.35,0-.5.09-.4.34.13.35.43.43,1,.43,2.29,0,4.66-.13,5.14-.13,1.37,0,3.31.13,4.71.13.48,0,.72-.09.59-.43-.1-.25-.26-.34-.79-.34h-.66c-1.36,0-1.97-.56-2.26-1.33-.2-.51-.37-1.54-.33-2.62l.06-6.13c-.01-.26.04-.35.27-.35h9.35c.22,0,.38.08.55.3l6.94,8.52c.18.22.27.62-.07.96-.07.06-.29.21-.46.27-.54.18-1.39.13-1.89.13-.39,0-.4.25-.4.51,0,.39.36.48.86.48,2.02,0,3.85-.04,4.19-.04h4.17c1.33.02,2.6.07,3.38.08,1.71,0,1.99-.09,1.86-.43-.11-.3.02-.45-.34-.45-.53,0-.58.03-1.29-.1-1.01-.21-2.2-1.45-5.33-5.31l-.66-.82-.26-15.74c.7.83,18.05,19.71,20.5,22.3.43.48.89.96,1.32.96.35,0,.51-.39.51-1.35l.43-27.33c.04-2.42.32-3.41,1.43-3.68.42-.1,1.55-.12,2.4.06,1.43.3,1.78,1,1.87,2.47.09,1.39.09,2.6.09,9.2v7.64c0,3.99,0,7.42-.22,9.24-.17,1.26-.39,2.21-1.26,2.38-.39.09-.91.18-1.56.18-.52,0-.69.13-.69.34,0,.3.31.43.87.43,1.74,0,5.72-.2,5.92-.18,3.98.21,7.47.15,9.39.09,1.59-.06,3.93.21,4.52.21.48,0,.88-.07.88-.44,0-.2-.13-.35-.54-.35h-.65c-1.34,0-1.18-.6-.71-1.28l6.17-8.91c.17-.26.29-.35.5-.35l8.72-.04c.22,0,.32.09.33.3l.35,9.06c.05.52-.38.92-.72,1-.45.05-.74.09-.73.47.02.37.38.42,1.18.4,1.57-.03,2.79-.07,4.56-.05,1.58.02,3.19.15,4.04.15,1.6,0,2.16-.22,2.28-.56.09-.31-.18-.48-.53-.48m-83.69-12.38h-7.53c-.18,0-.27-.12-.29-.3l.32-8.71c0-.15-.01-.37.12-.38s.16.12.29.28c.34.43,7.22,8.85,7.22,8.85.09.13.1.26-.12.26Zm72.8-.02l-7.07-.04c-.08,0-.24-.09-.09-.3.68-.98,4.88-7.03,6.69-9.62.12-.17.29-.11.29.06.06,1.3.49,9.65.49,9.65,0,.13-.09.26-.31.26Z"/>
  <path class="cls-1" d="m400.79,52.1c-12.03,0-16.56,9.72-16.56,17.24,0,3.65,1.02,7.65,3.28,10.89-.19.76-.61,1.67-1.04,2.13-1.08,1.17-3.81,1.21-6.11,1.21-3.39,0-3.62-.3-4.35-.95-.91-.78-.91-3.77-.91-9.33v-7.63c0-6.6,0-7.81.09-9.2.09-1.52.43-2.26,1.6-2.47.52-.08,1.22-.13,1.7-.13.52,0,.78-.08.78-.39s-.31-.39-.91-.39c-1.69,0-5.83.13-6.87.13-1.17,0-4.01-.13-6.05-.13-.65,0-.95.09-.95.39s.26.39.73.39c.57,0,1.09.05,1.43.13,1.43.3,1.78,1,1.87,2.47.09,1.39.09,2.61.09,9.2v7.63c0,4,0,7.42-.22,9.25-.17,1.25-.39,2.21-1.26,2.38-.39.09-.91.17-1.56.17-.52,0-.69.13-.69.35,0,.3.31.43.87.43,1.73,0,4.57-.13,5.57-.13,3.52,0,7.48.26,13.73.26,2.26,0,2.48-.21,2.74-1.17.22-.79.42-2.38.54-3.56,2.61,3.13,6.55,5.31,12.09,5.31,10.19,0,16.6-7.96,16.6-18.04,0-10.07-6.22-16.45-16.21-16.45m1.18,32.14c-7.32,0-11.7-7.19-11.7-16.25,0-10.85,4.99-13.63,9.37-13.63,6.25,0,11.16,6.05,11.16,15.81,0,12.59-6.17,14.07-8.84,14.07Z"/>
  <path class="cls-1" d="m139.79,85.46c-.53,0-1.16-.04-1.77-.18-.84-.21-1.65-1.17-2.01-5.08-.61-6.6-1.77-24.31-2-26.71-.08-.8-.88-.97-1.38-.61-.37.27-.88,1.04-1.39,1.75-6.01,8.2-9.95,13.5-15.06,20.4-.78-3.15-3.24-5.75-8.34-9.13l-1.44-.92c-4.27-2.78-5.48-4.32-5.54-6.35-.08-2.64,2.14-4.54,5.87-4.54,3.28,0,4.78,1.32,5.57,2.16,1.09,1.15,1.39,2.51,1.4,2.91.02.53.18.79.53.79.4,0,.55-.35.52-1.32-.1-3.44.06-4.72.04-5.29,0-.31-.26-.44-.72-.53-1.32-.31-3.45-.75-6.74-.75-7.02,0-11.56,3.48-11.41,8.33.11,3.57,2.12,6.65,7.78,10.45l2.37,1.58c4.28,2.82,5.09,4.89,5.16,7.05.07,2.34-2.07,5.02-6.62,5.02-3.13,0-6.14-1.19-7.35-4.45-.28-.75-.5-1.68-.52-2.25-.01-.35-.07-.75-.53-.75-.4,0-.49.49-.57,1.14-.05.42-.2,1.45-.25,1.74-.31,1.79-.83,2.71-1.97,3.24-1.14.53-2.98.53-4.12.53-4.47,0-7.72-.66-7.8-3.68-.04-1.27,0-5.3,0-6.8v-3.46c0-.27.04-.44.26-.44,1.05,0,7.29.04,8.12.13,1.62.18,2.24.83,2.46,1.71.13.57.13,1.14.17,1.58,0,.22.09.4.4.4.39,0,.39-.49.39-.83,0-.31.09-2.06.18-2.94.13-2.23.35-2.94.35-3.2s-.13-.35-.31-.35c-.22,0-.39.22-.7.57-.39.44-1.06.57-2.1.66-1.01.09-7.95.09-8.91.09-.26,0-.31-.18-.31-.48v-11.09c0-.31.09-.44.31-.44.88,0,7.38.09,8.12.18,2.19.26,2.63.79,2.94,1.58.22.53.26,1.27.26,1.58,0,.39.09.61.39.61s.4-.26.44-.48c.09-.53.17-2.45.22-2.89.13-2.02.35-2.54.35-2.85,0-.22-.04-.4-.26-.4s-.48.13-.7.18c-.35.09-1.05.18-1.88.26-.83.05-11.45.05-12.86.05-.61,0-1.62-.05-2.76-.09-.9,0-1.92-.03-2.91-.04-.04-.22-.13-.32-.32-.32-.34,0-1.39.43-4.17.43h-14.75c-1.44,0-3.08-.09-4.34-.22-1.09-.08-1.5-.36-1.85-.36-.24,0-.39.09-.51.56h-.43c-.58,0-1.16.02-1.7.05-.94.03-1.74.08-2.25.08-.88-.02-2.63-.13-4.51-.13-.58,0-1,.04-1,.39,0,.26.15.39.62.39.54,0,1.47,0,2.05.26.83.39,1.2,1.08,1.29,3.13l.14,17.64c-.65-.69-19.77-21.97-20.34-22.4-.73-.55-1.48-.04-1.48.65l-.37,11.41-.53,15.08c-.04,3.77-.78,4.51-1.79,5.11-.46.28-1.27.41-1.83.44-.17,0-1.97.09-2.74-.09-1.16-.28-1.86-1.07-1.99-2.24-.18-1.87-.18-5.3-.18-9.52v-7.64c0-6.6,0-7.82.09-9.21.08-1.52.43-2.26,1.6-2.47.52-.09.86-.13,1.29-.13s.69-.08.69-.44c0-.26-.34-.35-.91-.35-1.64,0-4.2.13-5.27.13-1.26,0-3.98-.13-5.62-.13-.69,0-1.04.09-1.04.35,0,.35.26.44.7.44.51,0,1.08.05,1.56.17.95.22,1.38.96,1.47,2.43.09,1.39.09,2.61.09,9.21v7.64c0,4.22,0,7.65-.21,9.47-.13,1.26-.39,2-1.26,2.18-.38.08-.91.17-1.55.17-.52,0-.69.13-.69.35,0,.3.3.44.87.44,1.73,0,4.45-.13,5.45-.13,1.16,0,7.67.13,7.88.13,2.24,0,4.51-.07,4.89-.07.82,0,2.54.13,5.34.13.6,0,.99-.09.99-.44,0-.26-.26-.34-.73-.34-.69,0-1.51-.05-2.24-.3-.86-.3-1.42-1.43-1.51-4.8l-.16-8.53-.14-8.48c.7.82,17.97,19.71,20.4,22.3.43.48.89.95,1.31.95.35,0,.5-.39.5-1.34l.43-27.34c0-.34.02-.65.03-.94.13-1.65.5-2.26,1.26-2.61.41-.18.98-.23,1.47-.25-.03,1.25,0,3.79,0,4.33,0,.48.09.69.39.69.26,0,.39-.17.48-.52.09-.35.3-.87.74-1.53.65-.96,1.7-1.18,4.22-1.27l4.35-.17v17.9c0,4.02,0,7.46-.22,9.3-.13,1.27-.65,2.22-1.51,2.41-.39.08-1.79.17-2.44.17-.52,0-.69.13-.69.35,0,.3.3.44.87.44,1.73,0,5.6-.13,6.59-.13,1.22,0,3.96.13,6.82.13.48,0,.83-.13.83-.44,0-.22-.22-.35-.7-.35-.65,0-1.61-.09-2.22-.17-1.3-.18-1.56-1.14-1.69-2.36-.22-1.88-.22-5.33-.22-9.34v-17.9l4.27.13c3.87.09,5.19,1.31,5.27,2.44l.04.48c.05.66.13.87.48.87.26,0,.35-.26.39-.7,0-1.06-.01-3.74-.01-4.85.33.02.63.05.82.1,1.44.31,1.8,1.01,1.89,2.5.08,1.4.08,2.63.08,9.29v7.71c0,4.03,0,7.5-.22,9.34-.18,1.27-.39,2.24-1.27,2.41-.39.09-.92.18-1.58.18-.53,0-.7.13-.7.35,0,.3.31.44.88.44.88,0,2.01-.04,3.02-.09,1.05,0,2.01-.05,2.5-.05,1.32,0,2.67.05,4.56.13,1.88.05,6.84.13,10.12.13,1.67,0,2.06,0,2.37-1.14.01-.04.02-.09.03-.14.13.33.38.49.89.68,2.2.84,4.48,1.15,7.41,1.15.97,0,1.95-.06,2.93-.19,1.3.01,2.39,0,3.21-.03,1.59-.05,3.93,0,4.52,0,.48,0,.87.06.88-.31,0-.2-.12-.35-.54-.35h-.65c-1.34,0-1.18-.6-.71-1.28l6.17-8.91c.17-.26.29-.34.5-.34l8.73-.04c.22,0,.32.09.34.31l.35,9.06c.05.52-.38.91-.71,1-.45.04-.74.08-.73.47.02.37.39.42,1.18.4,1.57-.03,2.78-.08,4.56-.05,1.58.02,3.19.15,4.04.15,1.61,0,2.16-.22,2.28-.56.1-.31-.18-.48-.52-.48m-10.89-12.4l-7.07-.03c-.07,0-.23-.09-.09-.3.68-.99,4.88-7.03,6.69-9.63.12-.17.28-.12.29.06.05,1.3.48,9.65.48,9.65,0,.13-.09.26-.31.26Z"/>
  <path class="cls-1" d="m196.77,59.15h-.02c-.28-.18-.71-.28-1-.15-1.85-.18-3.61-.16-5.47-.14h-.13c-.93.01-1.9.02-2.87,0l-7.82-.16c-1.83-.05-3.84-.03-5.81.04-1.46.01-2.88.05-4.32.09-1.5.04-5.09.05-7.24.06-1.14,0-1.74,0-1.82,0-.25.02-.56.37-.57.65,0,.16.09.34.36.37.2.02,1.5.03,3.85.02h2.41c.64-.02.94,0,1.08-.02h.01c1.77-.18,3.55-.17,5.27-.15h.13c1.11,0,2.26.01,3.42-.03.24.05.49,0,.74-.05h.04c.11-.03.22-.05.33-.06.26.07.57.07.88.06.3,0,.62-.01.9.06h0s.05,0,.05,0h0c.25-.09.48-.05.72,0,0,0,.04,0,.04,0,.11.02.22.04.33.05,2.24-.06,4.71.02,7.79.26,0,0,1.46.15,1.46.15h0s0,0,0,0h.02c1.3-.13,2.64-.03,3.93.06,0,0,.03,0,.03,0,.97.07,1.9.14,2.81.12h0s.06,0,.06,0h0s.49-.4.49-.4h0s.02-.02.02-.02h0c.16-.26.11-.63-.12-.84"/>
  <path class="cls-1" d="m183.83,75.77l.04-.02v-.1l-.03-3.05h0s0-.02,0-.02c-.05-.46-.06-.97-.08-1.5-.01-.6-.03-1.23-.11-1.78-.02-.79-.17-1.64-.32-2.46l-.1-.55v-.05s-.05-.04-.05-.04c-.12-.12-.16-.28-.21-.45-.04-.15-.08-.3-.18-.45-.2-.37-.53-.73-.81-1.05l-.02-.02c-.07-.1-.15-.15-.23-.19-.04-.03-.08-.06-.13-.09l-.07-.05h-.04s-.05-.03-.05-.03c-.26-.21-.5-.29-.78-.38h0c-.08-.12-.23-.13-.34-.14v-.08l-.15-.02-.67-.1-.1-.02-.06.08s-.03.04-.17-.01c-.07-.02-.14-.05-.22-.06h-.08s-.04.03-.04.03c-.02-.02-.05-.03-.08-.05l-.28-.08-.02.13c-.13,0-.23.02-.32.07h-.86s.05.17.05.17h0c-.18-.04-.32.07-.4.13-.02.01-.03.02-.04.03-.15.02-.23.09-.29.13-.04.03-.06.05-.1.05h-.07s-.05.06-.05.06c-.06.07-.26.16-.36.21l-.23.1.05.05s-.07.04-.11.07h-.22v.17s-.02,0-.02,0l-.12-.05s-.09.11-.09.11c-.13.19-.31.37-.49.57-.22.23-.44.47-.61.73l-.05.07.03.08s-.14.09-.16.22c-.08.09-.1.21-.12.29,0,.02,0,.06-.02.08-.09.11-.11.22-.12.3-.01.06-.02.1-.04.13l-.11.14.05.04c-.03.08-.03.17-.03.22,0,.02,0,.05,0,.07l-.07.04.02.11c.03.22,0,.42-.03.62-.03.2-.05.41-.03.64-.08.13-.06.27-.05.37,0,.03.01.08,0,.1l-.11.09.08.13c.06.1.01.26-.03.41-.04.14-.09.32-.04.47-.01.01-.03.02-.04.04-.02.02-.04.07-.03.12,0,.12-.01.16-.02.16l-.08.17v.06s.13.1.13.1c-.02.1,0,.19,0,.27.02.11.02.16-.01.2l-.09.16.09.11v.03c0,.07-.01.21.08.31,0,.02,0,.03.01.05l-.16.04.1.23s0,.04,0,.06c-.02.07-.05.2.02.32-.05.13-.02.26,0,.35,0,.02.01.06.02.08-.16.17-.08.38-.04.5-.07.11-.06.24-.04.32l-.21.07.22.22s0,.1.02.17c.02.04.06.06.09.07l-.07.02s0,.02,0,.02h0l.07.2v.02c-.02.11,0,.23.06.32-.02.02-.03.06-.03.1l-.08.08.08.12c.06.09.04.21,0,.4-.04.16-.1.38,0,.55l-.12.11.15.11s0,.02,0,.02c-.04.07-.11.2-.02.34v-.02c.02.07.01.18,0,.3-.02.17-.05.38.05.59l-.03.21v-.03c-.02.08,0,.15.03.2l-.07.03.05.15c.05.15.05.33.05.53,0,.37,0,.78.33,1.1l.07.07.09-.03c.25-.07.26-.32.27-.45,0-.03,0-.06,0-.08v-.03s0-.03,0-.03c-.1-.34-.06-.78-.02-1.17.01-.1.02-.2.03-.3v-.04s-.02-.05-.02-.05c-.07-.13-.05-.27-.03-.42.02-.14.03-.3-.02-.46.06-.72.03-1.56,0-2.3-.01-.31-.03-.61-.03-.89h0v-.02c-.04-.35-.03-.73-.02-1.09,0-.33.02-.66-.01-.97.08-.36.07-.68.07-1.02,0-.16,0-.31,0-.48v-.04s-.01-.02-.01-.02c.08-.09.1-.18.06-.28.03-.13.04-.26.04-.37,0-.09,0-.18.02-.25v-.04s0-.04,0-.04c-.02-.08,0-.16.02-.26.03-.11.06-.24,0-.37.13-.27.16-.6.18-.91v-.11c.02-.07,0-.14-.06-.19h0c0-.15.07-.27.17-.41.1-.16.21-.34.24-.58v-.04s0,0,0,0c.01-.02.03-.03.04-.04.06-.05.15-.13.15-.26,0-.02,0-.05-.01-.07.12-.11.19-.23.26-.33.1-.17.16-.28.35-.33l.09-.03.02-.09c.03-.1.12-.16.26-.26.11-.07.23-.15.32-.26.12.01.2-.02.24-.07.15-.04.26-.12.35-.2.15-.13.21-.15.31-.1l.1.05.07-.07s0,0,.02,0c.05-.02.13-.04.18-.12.05-.01.09-.02.12-.03.09-.03.11-.03.14-.02.03.02.09.04.16.02h0s.13,0,.13,0l.16-.02c.49-.06.91-.12,1.29.09l.13.07.08-.12s.03.04.05.06c.1.11.27.3.52.25.06.05.12.09.17.12.02.01.05.03.07.04h0s.03.05.03.05c.08.1.24.15.37.16.29.3.58.71.58.89v.17h.13c.05.23.11.51.29.69-.05.11,0,.25.01.31,0,.02.01.04.02.06l-.04.13.11.11.02.02c0,.11.05.22.08.3,0,.02.02.04.03.07l-.03.06c-.15.29.05.45.15.53.02.02.03.02.04.03-.08.06-.07.12-.09.22v.13s.07.08.07.08c0,0,0,0,0,0,0,0,0,.01,0,.02,0,.02.02.06.04.1l-.06.06-.04.15.09.12.07.04c0,.07.02.13.04.17,0,0,0,.02,0,.03v.07c-.07.28-.14.64.03.93,0,0-.01.01-.02.02-.08.11-.06.23-.05.32,0,.03.01.08.01.09l-.04.18s.06.02.1.03c0,.02-.01.03-.02.05l-.03.2h.07c-.01.07-.01.13-.02.19,0,.1,0,.17-.04.22l-.02.02v.03c-.06.18.01.35.07.49,0,.03.02.05.03.07-.03.03-.06.08-.06.15,0,.02,0,.03.01.04l-.04.04.03.1c.02.06.05.09.09.12h-.03s0,.14,0,.14v.05l-.11.03.05.11c-.03.05-.05.12-.03.21l-.07.13s.01.08.08.11c-.07.23.1.4.2.5.04.04.07.07.09.1h-.08l.06.22h0s-.03.04-.04.05l-.14.07.05.19-.02.05c-.03.1,0,.16.02.21,0,0,.01.01.02.02-.05.05-.11.12-.12.23l-.02.16.13.02s-.02.07-.03.1c-.02.06-.03.11-.06.15h0s0,.02-.01.02l.23.13c-.03.06-.05.12-.07.16,0,.03-.02.06-.02.07h-.21s0,.22,0,.22c0,.03.02.07.02.12,0,.04,0,.08.02.13v.22s0,.07.01.12h-.03s.02.14.02.14c.01.06,0,.12,0,.18,0,.03,0,.08,0,.11l-.15.08.19.21h0c-.02.06-.05.13-.05.2h-.13l.23.28s.04.08.05.13c0,0,0,.01,0,.02-.1.09-.11.23-.12.3,0,.03,0,.08-.02.09,0,0,0,0,0,0l.06.08s-.07.07-.09.1c-.02.05-.02.11-.02.16h-.22l.18.18-.17.06.14.12v.45c0,.08.04.15.1.19,0,0,.01,0,.01,0,.09.06.19.06.27.04v.19l.22-.07c.16-.05.28-.06.41-.03l.18.03.02-.18c.09-.68.07-1.33.05-1.97-.02-.62-.03-1.21.05-1.78.05-.11,0-.22-.03-.27"/>
  <path class="cls-1" d="m170.85,75.77l.04-.02v-.1l-.03-3.05h0v-.02c-.06-.46-.07-.97-.08-1.5-.01-.6-.03-1.23-.11-1.78-.01-.79-.17-1.64-.32-2.46l-.1-.55v-.05s-.05-.04-.05-.04c-.12-.12-.16-.28-.21-.45-.04-.15-.08-.3-.17-.45-.2-.37-.53-.73-.81-1.05v-.02c-.09-.1-.17-.15-.24-.19-.04-.03-.08-.06-.13-.09l-.06-.05h-.04s-.05-.03-.05-.03c-.26-.21-.5-.29-.78-.38h0c-.08-.12-.23-.13-.34-.14v-.08l-.14-.02-.68-.1-.1-.02-.06.08s-.03.04-.17-.01c-.07-.02-.14-.05-.22-.06h-.08s-.04.03-.04.03c-.02-.02-.05-.03-.08-.05l-.28-.08-.02.13c-.13,0-.23.02-.32.07h-.86s.05.17.05.17h0c-.18-.04-.32.07-.4.13-.02.01-.03.02-.04.03-.15.02-.23.09-.29.13-.04.03-.06.05-.1.05h-.07s-.04.06-.04.06c-.06.07-.26.16-.36.21l-.23.1.05.05s-.08.04-.11.07h-.22v.17s-.02,0-.02,0l-.12-.05s-.09.11-.09.11c-.13.19-.31.37-.49.57-.22.23-.44.47-.61.73l-.05.07.03.08s-.14.09-.16.22c-.09.09-.1.21-.12.29,0,.02,0,.06-.02.08-.09.11-.11.22-.13.3,0,.06-.02.1-.04.13l-.11.14.05.04c-.03.08-.03.17-.03.22,0,.02,0,.05,0,.07l-.07.04.02.11c.03.22,0,.42-.03.62-.03.2-.05.41-.03.64-.09.13-.07.27-.05.37,0,.03.01.08,0,.1l-.11.09.08.13c.06.1.01.26-.03.41-.04.14-.09.32-.04.47-.01.01-.03.02-.04.04-.02.02-.03.07-.03.12,0,.12-.01.16-.02.16l-.08.17v.06s.13.1.13.1c-.02.1,0,.19,0,.27.02.11.02.16-.01.2l-.09.16.09.11v.03c0,.07,0,.21.08.31,0,.02,0,.03.01.05l-.17.04.11.23s0,.04,0,.06c-.02.07-.05.2.02.32-.05.13-.02.26,0,.35,0,.02.02.06.02.08-.16.17-.08.38-.04.5-.07.11-.06.24-.04.32l-.21.07.22.22s0,.1.03.17c.02.04.06.06.09.07l-.07.02s0,.02,0,.02h0l.08.2v.02c-.02.11,0,.23.06.32-.02.02-.03.06-.04.1l-.08.08.08.12c.06.09.04.21,0,.4-.04.16-.09.38,0,.55l-.12.11.15.11s0,.02,0,.02c-.04.07-.11.2-.02.34v-.02c.02.07,0,.18,0,.3-.02.17-.04.38.05.59l-.03.21v-.03c-.02.08,0,.15.03.2l-.07.03.05.15c.05.15.05.33.05.53,0,.37,0,.78.33,1.1l.07.07.1-.03c.25-.07.26-.32.27-.45,0-.03,0-.06,0-.08v-.03s0-.03,0-.03c-.1-.34-.06-.78-.02-1.17,0-.1.02-.2.03-.3v-.04s-.02-.05-.02-.05c-.07-.13-.05-.27-.03-.42.02-.14.03-.3-.02-.46.06-.72.02-1.56,0-2.3-.01-.31-.02-.61-.03-.89h0s0-.02,0-.02c-.04-.35-.03-.73-.02-1.09,0-.33.02-.66-.01-.97.08-.36.07-.68.07-1.02,0-.16,0-.31,0-.48v-.07c.07-.09.08-.18.04-.28.04-.13.04-.26.04-.37,0-.09,0-.18.03-.25v-.04s0-.04,0-.04c-.02-.08,0-.16.02-.26.02-.11.05-.24,0-.37.13-.27.16-.6.19-.91v-.11c.02-.07,0-.14-.06-.19h0c0-.15.07-.27.16-.41.1-.16.21-.34.24-.58v-.04s0,0,0,0c.01-.02.02-.03.04-.04.06-.05.15-.13.15-.26,0-.02,0-.05,0-.07.12-.11.19-.23.25-.33.1-.17.16-.28.35-.33l.09-.03.02-.09c.03-.1.12-.16.27-.26.11-.07.23-.15.32-.26.12.01.2-.02.24-.07.15-.04.26-.12.35-.2.16-.13.21-.15.31-.1l.1.05.07-.07s.01,0,.01,0c.05-.02.13-.04.19-.12.05-.01.09-.02.12-.03.09-.03.11-.03.14-.02.03.02.09.04.16.02h0s.13,0,.13,0l.16-.02c.49-.06.91-.12,1.29.09l.14.07.08-.12s.04.04.05.06c.1.11.27.3.52.25.05.05.11.09.17.12.02.01.05.03.07.04h0s.03.05.03.05c.08.1.24.15.37.16.29.3.58.71.58.89v.17h.13c.05.23.11.51.29.69-.05.11,0,.25.01.31,0,.02.01.04.02.06l-.04.13.11.11.03.02c0,.11.04.22.08.3,0,.02.02.04.03.07l-.03.06c-.15.29.05.45.15.53.01.02.02.02.04.03-.08.06-.07.12-.09.22v.13s.07.08.07.08c0,0,0,0,0,0,0,0,0,.01,0,.02.01.02.02.06.04.1l-.06.06-.04.15.08.12.07.04c0,.07.03.13.04.17,0,0,0,.02,0,.03l-.02.07c-.06.28-.12.64.05.93,0,0,0,.01-.01.02-.08.11-.06.23-.04.32,0,.03.01.08,0,.09l-.04.18s.06.02.1.03c0,.02-.01.03-.01.05l-.04.2h.07c0,.07-.01.13-.01.19,0,.1,0,.17-.04.22v.02s-.02.03-.02.03c-.05.18.02.35.07.49,0,.03.02.05.03.07-.03.03-.06.08-.05.15,0,.02,0,.03,0,.04l-.04.04.03.1c.02.06.05.09.09.12h-.03s0,.14,0,.14v.05l-.1.03.05.11c-.02.05-.05.12-.02.21l-.07.13s.01.08.08.11c-.07.23.1.4.2.5.04.04.07.07.09.1h-.08l.06.22h0s-.03.04-.04.05l-.14.07.05.19v.05c-.05.1-.02.16,0,.21,0,0,.01.01.02.02-.05.05-.11.12-.12.23l-.02.16.13.02s-.02.07-.03.1c-.02.06-.03.11-.06.15h0s0,.02-.01.02l.23.13c-.03.06-.05.12-.06.16,0,.03-.02.06-.02.07h-.21s.01.22.01.22c.01.03.02.07.02.12,0,.04,0,.08.02.13v.22s0,.07.01.12h-.03s.02.14.02.14c0,.06,0,.12,0,.18,0,.03,0,.08,0,.11l-.15.08.19.21s0,0,0,0c-.02.05-.05.12-.05.2h-.14l.23.28s.04.08.05.13c0,0,0,.01,0,.02-.09.09-.11.23-.12.3,0,.03,0,.08-.02.09,0,0,0,0,0,0l.06.08s-.07.07-.09.1c-.02.05-.03.11-.02.16h-.22l.18.18-.17.06.14.12v.45c0,.08.04.15.11.19,0,0,0,0,0,0,.09.06.19.06.27.04v.19l.22-.07c.16-.05.28-.06.41-.03l.18.03.02-.18c.09-.68.07-1.33.05-1.97-.02-.62-.03-1.21.05-1.78.05-.11,0-.22-.03-.27"/>
  <path class="cls-1" d="m196.58,76l.04-.02v-.1s-.04-3.05-.04-3.05h0v-.02c-.06-.46-.07-.96-.08-1.5-.02-.6-.03-1.23-.11-1.78-.02-.79-.17-1.64-.32-2.45l-.1-.56v-.05s-.05-.04-.05-.04c-.12-.12-.16-.27-.21-.45-.04-.15-.08-.3-.17-.45-.2-.37-.53-.73-.81-1.05l-.02-.02c-.07-.1-.15-.15-.23-.19-.04-.03-.08-.06-.12-.09l-.07-.06h-.04s-.05-.03-.05-.03c-.26-.21-.5-.29-.78-.38h0c-.08-.12-.23-.13-.34-.14v-.07l-.15-.02-.68-.1-.1-.02-.06.08s-.03.04-.18-.01c-.06-.02-.13-.05-.21-.06h-.08s-.04.03-.04.03c-.02-.02-.05-.03-.08-.05l-.28-.09-.02.13c-.13,0-.23.03-.32.07h-.86s.05.16.05.16c0,0,0,0-.01,0-.18-.05-.32.06-.4.13-.01.01-.03.02-.04.03-.15.03-.23.09-.29.13-.04.03-.06.04-.1.05h-.07s-.05.06-.05.06c-.06.08-.25.16-.36.21l-.23.1.05.05s-.08.04-.11.07h-.22v.18s-.02,0-.02,0l-.12-.05s-.09.1-.09.1c-.13.19-.31.37-.49.57-.22.23-.44.47-.61.72l-.06.08.03.07s-.14.09-.16.22c-.08.09-.1.22-.11.29,0,.03-.01.06-.02.07-.09.11-.11.22-.13.3,0,.06-.02.1-.04.13l-.11.14.05.03c-.03.08-.03.17-.03.22,0,.02,0,.05,0,.07l-.07.04.02.11c.03.22,0,.41-.03.62-.03.2-.05.41-.03.64-.08.13-.06.28-.05.37,0,.03.01.08,0,.1l-.11.09.08.13c.06.1.01.26-.03.41-.04.14-.09.32-.04.47-.01.01-.03.02-.04.04-.02.03-.03.07-.03.13,0,.11-.01.15-.02.16l-.08.16-.02.07.15.1c-.02.1,0,.19,0,.27.02.11.02.16-.01.2l-.09.17.09.1v.03c0,.07-.01.21.08.31,0,.02,0,.04,0,.05l-.16.04.11.23s0,.04-.01.06c-.02.07-.05.2.02.32-.05.13-.02.27,0,.35,0,.02.01.06.02.08-.16.16-.08.38-.04.5-.07.11-.06.25-.04.32l-.21.07.22.22c-.01.05-.01.1.02.17.03.04.06.06.09.08l-.07.02s0,.02,0,.02h0l.08.2v.02c-.02.12,0,.23.06.32-.02.03-.03.06-.03.1l-.08.08.08.12c.06.09.04.21,0,.4-.04.16-.09.37,0,.56l-.12.12.15.11s-.01.02-.01.02c-.04.07-.11.2-.02.34v-.02c.02.07.01.18,0,.3-.02.17-.04.38.05.58l-.03.2v-.02c-.02.08,0,.15.02.2l-.07.03.05.14c.05.15.05.34.05.53,0,.37,0,.78.33,1.1l.07.07.1-.03c.25-.07.26-.32.27-.45,0-.03,0-.05,0-.08v-.03s0-.03,0-.03c-.1-.34-.06-.78-.02-1.17,0-.1.02-.2.03-.3v-.05s-.02-.04-.02-.04c-.07-.14-.05-.27-.03-.43.02-.14.03-.3-.02-.46.06-.71.02-1.55,0-2.3-.01-.32-.02-.61-.03-.88h0v-.02c-.04-.35-.03-.73-.02-1.09.01-.33.02-.67,0-.98.08-.35.07-.68.07-1.02,0-.15,0-.32,0-.49v-.06c.07-.09.09-.19.04-.28.04-.13.04-.26.05-.37,0-.09,0-.17.02-.25v-.04s0-.04,0-.04c-.02-.08,0-.16.02-.25.02-.12.05-.25,0-.38.13-.27.16-.59.19-.91v-.11c.02-.07,0-.14-.06-.19h0c0-.15.07-.27.16-.41.1-.16.21-.33.24-.58v-.04s0,0,0,0c.01-.01.02-.02.04-.04.06-.05.15-.13.15-.26,0-.02,0-.05-.01-.07.12-.11.19-.23.26-.34.1-.16.16-.28.35-.33l.09-.03.02-.09c.03-.1.12-.17.26-.26.11-.07.23-.15.32-.26.12.01.2-.02.24-.07.15-.04.26-.12.35-.2.16-.12.21-.15.31-.1l.11.05.07-.07s.01,0,.02,0c.05-.01.13-.04.18-.12.05-.01.09-.02.12-.03.09-.03.11-.03.14-.02.03.02.09.04.16.02h0s.13,0,.13,0l.16-.02c.49-.06.91-.12,1.29.09l.13.08.08-.12s.03.04.05.06c.1.11.27.3.52.26.05.05.12.09.17.12.02.01.05.03.07.04h0s.03.05.03.05c.08.1.24.15.37.16.29.3.58.71.58.89v.17h.13c.05.24.11.51.28.69-.05.12,0,.25.01.31,0,.02.01.04.02.06l-.04.13.11.11h.02c0,.13.05.24.09.32,0,.02.02.04.03.06l-.02.06c-.15.29.05.45.15.53.01.01.03.02.04.03-.08.06-.07.12-.09.22v.13s.06.08.06.08h0s0,.01,0,.02c.01.03.02.06.04.1l-.06.06-.04.15.09.12.06.03c0,.07.03.13.04.17,0,0,0,.02,0,.02v.08c-.07.28-.14.64.03.93,0,0,0,0,0,0-.08.11-.06.23-.05.32,0,.03.01.08,0,.09l-.04.17s.05.02.1.03c0,.02-.01.03-.02.05l-.04.2h.07c-.02.07-.02.13-.02.19,0,.1,0,.17-.04.22v.02s-.02.03-.02.03c-.05.18.02.35.07.49.01.03.02.05.03.08-.03.03-.06.08-.05.14,0,.02,0,.03.01.04l-.04.03.03.1c.02.05.05.09.1.11h-.03s0,.14,0,.14v.05l-.1.03.05.11c-.03.05-.06.12-.03.21l-.07.13s.01.08.08.11c-.07.23.1.4.2.5.04.05.07.07.09.1h-.08l.06.22h0s-.03.04-.04.06l-.14.07.04.19-.02.05c-.03.1,0,.17.02.2,0,0,.02.01.02.02-.05.05-.1.12-.12.23l-.02.16.13.02s-.02.07-.03.1c-.02.06-.03.11-.06.15h0s-.01.02-.01.02l.23.13c-.03.06-.05.12-.06.17,0,.02-.02.05-.03.07h-.21s.01.22.01.22c.01.03.02.07.02.12,0,.04,0,.09.02.13v.22s0,.07.01.12l-.02.02.02.12c.01.06,0,.12,0,.18,0,.03,0,.07,0,.11l-.16.08.19.21s0,0,0,.01c-.02.05-.05.12-.05.19h-.14l.23.28s.04.09.05.13c0,0,0,.02,0,.02-.09.09-.11.22-.12.3,0,.03,0,.08-.02.09h0s.06.07.06.07c-.04.03-.07.07-.09.1-.02.05-.02.11-.02.16h-.22l.18.18-.17.06.14.12v.45c0,.08.04.15.1.18,0,0,.01,0,.02,0,.09.06.19.06.27.04v.19l.22-.06c.16-.05.28-.06.41-.03l.18.04.02-.18c.09-.67.07-1.33.05-1.96-.02-.62-.03-1.2.05-1.78.05-.11,0-.22-.03-.27"/>
  <path class="cls-1" d="m201.71,45.96h-46.73v46.73h46.73v-46.73Zm-2.47,44.27h-41.79v-41.8h41.79v41.8Z"/>
</svg>