<?xml version="1.0" encoding="UTF-8"?>
<svg id="Layer_1" data-name="Layer 1" xmlns="http://www.w3.org/2000/svg" viewBox="0 0 86 134">
  <defs>
    <style>
      .cls-1 {
        fill: #fff;
      }
    </style>
  </defs>
  <path class="cls-1" d="m1.15.94v51.53h51.53V.94H1.15Zm46.8,46.8H5.88V5.67h42.07v42.07ZM11.67,11.48v30.51h30.51V11.48H11.67Zm25.26,25.23h-20.02v-20.02h20.02v20.02Zm-5.24-5.24h-9.56v-9.56h9.56v9.56Zm27.35,27.35V.94h4.25v62.15H1.13v-4.25h57.92Zm15.08,15.08H1.13v-3.84h69.16V.94h3.84v72.97ZM85.25.94v84.1H1.13v-3.46h80.67V.94h3.46Z"/>
  <g>
    <path class="cls-1" d="m12.46,101.05l-3,.75c-.51-1.25-1.26-1.87-2.57-1.87-1.81,0-2.91,1.39-2.91,3.9s1.04,3.98,2.96,3.98c1.51,0,2.31-.75,2.85-2.16l2.95.88c-.99,2.52-3.25,3.83-5.9,3.83-3.13,0-6.08-1.88-6.08-6.53s2.95-6.49,6.11-6.49c2.37,0,4.56.97,5.6,3.68h0Z"/>
    <path class="cls-1" d="m22.64,105.53v.53h-6.46c.09,1.37.88,2.03,2.07,2.03.99,0,1.57-.49,2-1.17l2.33,1.12c-.92,1.44-2.38,2.28-4.48,2.28-3.08,0-4.97-2.08-4.97-4.98s1.77-4.98,4.78-4.98,4.73,1.98,4.73,5.17Zm-6.49-1.23h3.48c-.07-1.31-.73-1.86-1.76-1.86-.92,0-1.64.53-1.73,1.86Z"/>
    <path class="cls-1" d="m32.78,103.9v6.16h-2.96v-5.32c0-1.29-.31-1.91-1.31-1.91s-1.69.83-1.69,2.08v5.15h-2.96v-9.45h2.85v1.27c.7-1.08,1.73-1.53,2.99-1.53,1.96,0,3.11,1.27,3.11,3.55h-.01Z"/>
    <path class="cls-1" d="m37.79,100.85h2.21v2.08h-2.21v3.89c0,.78.23,1.13,1.07,1.13.48,0,.84-.07,1.29-.18v2.22c-.62.2-1.34.31-2.13.31-2.39,0-3.19-1.13-3.19-3.04v-4.34h-1.27v-2.08h1.27v-2.44h2.96v2.44h0Z"/>
    <path class="cls-1" d="m50.05,105.53v.53h-6.46c.09,1.37.88,2.03,2.07,2.03.99,0,1.57-.49,2-1.17l2.33,1.12c-.92,1.44-2.39,2.28-4.49,2.28-3.08,0-4.97-2.08-4.97-4.98s1.77-4.98,4.78-4.98,4.73,1.98,4.73,5.17Zm-6.49-1.23h3.48c-.06-1.31-.73-1.86-1.75-1.86-.92,0-1.64.53-1.73,1.86Z"/>
    <path class="cls-1" d="m57.36,100.4v2.82c-.34-.01-.45-.01-.59-.01-1.43,0-2.56.6-2.56,3.18v3.68h-2.96v-9.45h2.85v1.52c.65-1.31,1.56-1.78,2.55-1.78.25,0,.48.01.73.05h-.01Z"/>
    <path class="cls-1" d="m67.8,97.74v2.07c-.48-.14-1.09-.26-1.64-.26-.69,0-.98.18-.98.78v.53h2.25v2.08h-2.25v7.14h-2.96v-7.14h-1.27v-2.08h1.27v-.75c0-1.62.97-2.72,3.29-2.72.87,0,1.68.18,2.3.38v-.03Z"/>
    <path class="cls-1" d="m77.83,105.33c0,2.99-1.98,4.98-5.11,4.98s-5.11-2.07-5.11-4.98,1.91-4.98,5.11-4.98,5.11,2.15,5.11,4.98Zm-7.1-.04c0,1.81.74,2.7,2,2.7s1.98-.9,1.98-2.7-.78-2.64-1.98-2.64-2,.79-2,2.64Z"/>
    <path class="cls-1" d="m85.16,100.4v2.82c-.34-.01-.45-.01-.58-.01-1.43,0-2.56.6-2.56,3.18v3.68h-2.96v-9.45h2.85v1.52c.65-1.31,1.56-1.78,2.55-1.78.25,0,.48.01.73.05h-.01Z"/>
    <path class="cls-1" d="m12.2,123.3c0,4.84-3.2,6.36-6.2,6.36H1.28v-12.38h4.17c3.52,0,6.75,1.56,6.75,6.01h0Zm-7.81-3.52v7.38h1.61c1.44,0,2.99-.69,2.99-3.87,0-2.21-.98-3.52-3.45-3.52h-1.16Z"/>
    <path class="cls-1" d="m22.59,125.12v.53h-6.46c.09,1.37.88,2.03,2.07,2.03.99,0,1.57-.49,2-1.17l2.33,1.12c-.92,1.44-2.38,2.28-4.48,2.28-3.08,0-4.97-2.08-4.97-4.98s1.77-4.98,4.78-4.98,4.73,1.98,4.73,5.17Zm-6.49-1.23h3.48c-.07-1.31-.73-1.86-1.76-1.86-.92,0-1.64.53-1.73,1.86Z"/>
    <path class="cls-1" d="m31.9,121.37l-1.44,1.62c-.83-.64-1.61-.95-2.55-.95s-1.31.29-1.31.73c0,.49.3.65,2.21,1.03,2.25.43,3.3,1.34,3.3,3.05,0,1.81-1.61,3.05-4.42,3.05-2.2,0-3.58-.64-4.68-1.61l1.42-1.69c.99.85,1.98,1.14,2.91,1.14,1.13,0,1.64-.3,1.64-.78s-.18-.69-2.12-1.07c-2.25-.43-3.34-1.29-3.34-2.95,0-1.94,1.86-3.02,4.26-3.02,1.82,0,3.2.6,4.12,1.43Z"/>
    <path class="cls-1" d="m36.36,117.34c0,.9-.79,1.61-1.69,1.61s-1.69-.7-1.69-1.61.79-1.61,1.69-1.61,1.69.7,1.69,1.61Zm-.21,12.31h-2.96v-9.45h2.96v9.45Z"/>
    <path class="cls-1" d="m47.22,121.58c-.64,0-.95.04-1.33.16.31.43.44.92.44,1.44,0,1.72-1.38,3.08-4.24,3.08-.7,0-1.29-.1-1.82-.29-.14.16-.25.34-.25.53,0,.39.26.62,1.18.62h1.53c2.81,0,4.15,1.2,4.15,2.89,0,1.87-1.64,3.04-4.98,3.04-3.59,0-4.67-1.03-4.67-2.4,0-.79.48-1.44,1.36-1.83-.68-.39-.94-.99-.94-1.59,0-.68.48-1.33,1.2-1.78-.83-.51-1.34-1.34-1.34-2.31,0-1.78,1.43-3.18,4.34-3.18,1.04,0,1.89.21,2.55.51.62-.74,1.51-1.22,2.8-1.23v2.37h0Zm-7.03,7.79c-.34.23-.48.49-.48.82,0,.56.39.9,2.11.9,1.48,0,2.05-.34,2.05-.92s-.45-.79-1.61-.79h-2.07Zm.3-6.3c0,.73.53,1.2,1.47,1.2s1.48-.45,1.48-1.22-.53-1.23-1.47-1.23-1.48.49-1.48,1.26Z"/>
    <path class="cls-1" d="m57.13,123.49v6.16h-2.96v-5.32c0-1.29-.31-1.91-1.31-1.91s-1.69.83-1.69,2.08v5.15h-2.96v-9.45h2.85v1.27c.7-1.08,1.73-1.53,2.99-1.53,1.96,0,3.11,1.27,3.11,3.55h-.01Z"/>
  </g>
</svg>