<?xml version="1.0" encoding="UTF-8"?>
<svg id="Layer_2" data-name="Layer 2" xmlns="http://www.w3.org/2000/svg" viewBox="0 0 343.85 193.7">
  <g id="Layer_1-2" data-name="Layer 1">
    <path d="m306.6,6.3l-14.98,14.98-35.77,35.77-43.48,43.48-37.41,37.41c-6.07,6.07-12.3,12.03-18.27,18.27l-.27.27h30.95l-14.98-14.98-35.77-35.77-43.48-43.48L55.75,24.84c-6.07-6.07-12.09-12.3-18.27-18.27l-.27-.27C29.12-1.8,14.24-2.4,6.26,6.3-1.78,15.05-2.38,28.61,6.26,37.25c4.98,4.98,10.01,10.01,14.98,14.98l35.77,35.77,43.48,43.48,37.41,37.41c6.07,6.07,12.09,12.3,18.27,18.27l.27.27c8.37,8.37,22.59,8.37,30.95,0,4.98-4.98,10.01-10.01,14.98-14.98l35.77-35.77,43.48-43.48,37.41-37.41c6.07-6.07,12.3-12.09,18.27-18.27l.27-.27c8.09-8.09,8.7-22.97,0-30.95-8.75-8.04-22.31-8.64-30.95,0Z"/>
  </g>
</svg>