<svg width="25" height="25" viewBox="0 0 25 25" fill="none" xmlns="http://www.w3.org/2000/svg">
<mask id="mask0_702_1342" style="mask-type:alpha" maskUnits="userSpaceOnUse" x="0" y="0" width="25" height="25">
<rect x="0.5" y="0.5" width="24" height="24" fill="#D9D9D9"/>
</mask>
<g mask="url(#mask0_702_1342)">
<path d="M19.9846 20.6538L13.723 14.3923C13.223 14.8179 12.648 15.1474 11.998 15.3807C11.348 15.6141 10.6948 15.7307 10.0384 15.7307C8.43673 15.7307 7.08118 15.1763 5.97177 14.0675C4.86233 12.9587 4.30762 11.6039 4.30762 10.0031C4.30762 8.40227 4.86203 7.04642 5.97084 5.93552C7.07966 4.82462 8.43447 4.26917 10.0353 4.26917C11.6361 4.26917 12.9919 4.82387 14.1028 5.93329C15.2137 7.04271 15.7692 8.39826 15.7692 9.99994C15.7692 10.6948 15.6461 11.3672 15.3999 12.0172C15.1538 12.6672 14.8307 13.223 14.4307 13.6846L20.6923 19.9461L19.9846 20.6538ZM10.0384 14.7307C11.3653 14.7307 12.4855 14.274 13.399 13.3605C14.3124 12.447 14.7692 11.3269 14.7692 9.99994C14.7692 8.67302 14.3124 7.55283 13.399 6.63937C12.4855 5.7259 11.3653 5.26917 10.0384 5.26917C8.71148 5.26917 7.59128 5.7259 6.67782 6.63937C5.76437 7.55283 5.30764 8.67302 5.30764 9.99994C5.30764 11.3269 5.76437 12.447 6.67782 13.3605C7.59128 14.274 8.71148 14.7307 10.0384 14.7307ZM7.76917 10.4999V9.49994H12.3076V10.4999H7.76917Z" fill="#CBCBCB"/>
</g>
</svg>
